Coordinates
nRows=12
nColumns=24

# SIMM Motion File Header:
name Coordinates
datacolumns 24
datarows 12
otherdata 1
range 0.92500000000000004000 0.93600000000000005000

Units are S.I. units (second, meters, Newtons, ...)
Angles are in degrees.

endheader
time	pelvis_tx	pelvis_ty	pelvis_tz	pelvis_tilt	pelvis_list	pelvis_rotation	hip_flexion_r	hip_adduction_r	hip_rotation_r	knee_angle_r	ankle_angle_r	subtalar_angle_r	mtp_angle_r	hip_flexion_l	hip_adduction_l	hip_rotation_l	knee_angle_l	ankle_angle_l	subtalar_angle_l	mtp_angle_l	lumbar_extension	lumbar_bending	lumbar_rotation
      0.92500000000000004000	     -0.42288803618301007000	      0.82400767183991841000	     -0.28339815527260337000	     14.99143713445448600000	      5.46671298401269380000	     11.30818416198291500000	      7.86443636318379460000	     -8.39601530997451210000	     -0.30442354646635916000	      4.90887844160985320000	      1.27009655590718970000	     -0.00000000000001012626	      0.00000000000000041817	    -43.52251617825664500000	     -1.25730489561379840000	     10.54701956323872400000	     -1.22749176527133200000	      3.66677621645654740000	     -0.00000000000006397144	      0.00000000000049337719	    -25.20574616808103800000	      0.03147459242333891500	    -12.08252675926310900000
      0.92600000000000005000	     -0.42095865098642749000	      0.82377941234057639000	     -0.28346978890074093000	     14.99260542663203400000	      5.40949612778808220000	     11.32757989348476500000	      7.93358278125088390000	     -8.31098885611442380000	     -0.32495377942195253000	      4.66115009250610780000	      1.23245009797245950000	     -0.00000000000001019022	      0.00000000000000044568	    -43.50891413430245100000	     -1.31817581000051900000	     10.49659317082414300000	     -1.43936090506527200000	      3.53715178386936650000	     -0.00000000000006418121	      0.00000000000049603242	    -25.17198650440438000000	      0.10862319288333587000	    -12.08287472592739700000
      0.92700000000000005000	     -0.41902494682970115000	      0.82355561589743986000	     -0.28354017989761948000	     14.99441229195132600000	      5.35092515822154360000	     11.34654422838255900000	      8.00283343227916970000	     -8.22394688681313650000	     -0.34629272511163689000	      4.40977772627783790000	      1.19291813705369650000	     -0.00000000000001025269	      0.00000000000000047220	    -43.49381710912666700000	     -1.37994187049151830000	     10.44446626136180700000	     -1.65464885912224240000	      3.40351641580144240000	     -0.00000000000006442563	      0.00000000000049884758	    -25.13835443471543800000	      0.18718356208964287000	    -12.08257118199746400000
      0.92800000000000005000	     -0.41708695970687176000	      0.82333627207452986000	     -0.28360930782396393000	     14.99685502118486500000	      5.29101579278181870000	     11.36507331313382000000	      8.07217556109185350000	     -8.13491229837783610000	     -0.36843995910436966000	      4.15484817708483070000	      1.15148648289571300000	     -0.00000000000001031474	      0.00000000000000050124	    -43.47719312938967600000	     -1.44259175209054110000	     10.39064716398011100000	     -1.87338634798334810000	      3.26585636332728280000	     -0.00000000000006475643	      0.00000000000050180822	    -25.10485741416565700000	      0.26713415639204352000	    -12.08161395213219800000
      0.92900000000000005000	     -0.41514473498084220000	      0.82312136781233769000	     -0.28367715388016007000	     14.99993157319331900000	      5.22978525565202370000	     11.38316546888149700000	      8.14158859777498730000	     -8.04391226013247440000	     -0.39135318432311511000	      3.89647423491727940000	      1.10817216099387550000	     -0.00000000000001037496	      0.00000000000000053091	    -43.45901217323204000000	     -1.50611450923505900000	     10.33514724770071200000	     -2.09560410852947050000	      3.12415976927810530000	     -0.00000000000006501208	      0.00000000000050467832	    -25.07150539726832200000	      0.34845288788655943000	    -12.08000425539611900000
      0.93000000000000005000	     -0.41319832103183768000	      0.82291089348923452000	     -0.28374369937454491000	     15.00363972248903500000	      5.16725130369395740000	     11.40081906939096600000	      8.21105228487879660000	     -7.95097485929581090000	     -0.41499147834307148000	      3.63476707245443590000	      1.06299099653157290000	     -0.00000000000001043614	      0.00000000000000055996	    -43.43924421423108800000	     -1.57049868463898120000	     10.27797884151386800000	     -2.32133210726378450000	      2.97841789784361620000	     -0.00000000000006517867	      0.00000000000050751723	    -25.03830844278513400000	      0.43111676092340045000	    -12.07774343876780400000
      0.93100000000000005000	     -0.41124776966072080000	      0.82270484400311406000	     -0.28380892701009891000	     15.00797740304782800000	      5.10343227534302010000	     11.41803302267172300000	      8.28054519542819280000	     -7.85612961071209790000	     -0.43930657195616202000	      3.36984165769815290000	      1.01595779999533400000	     -0.00000000000001050000	      0.00000000000000059318	    -43.41785947899398900000	     -1.63573264313813430000	     10.21915550811628600000	     -2.55059949739224030000	      2.82862433532725270000	     -0.00000000000006544286	      0.00000000000051051444	    -25.00527704173756800000	      0.51510219226822562000	    -12.07483342870900600000
      0.93200000000000005000	     -0.40929313583720944000	      0.82250321842581653000	     -0.28387281993234637000	     15.01294242601030900000	      5.03834704745806670000	     11.43480637061816200000	      8.35004612154135020000	     -7.75940692438329550000	     -0.46425087254796360000	      3.10181189295302940000	      0.96708574868522179000	     -0.00000000000001056304	      0.00000000000000062453	    -43.39482817786163300000	     -1.70180438806488450000	     10.15869178457303900000	     -2.78343449455367550000	      2.67477535855547990000	     -0.00000000000006577918	      0.00000000000051347058	    -24.97242171626047000000	      0.60038484998142228000	    -12.07127631827321500000
      0.93300000000000005000	     -0.40733447799958106000	      0.82230602026868505000	     -0.28393536196615959000	     15.01853256033235700000	      4.97201506227048990000	     11.45113838442222900000	      8.41953375995810660000	     -7.66083816759054860000	     -0.48977509173178246000	      2.83079192192302110000	      0.91638570097146133000	     -0.00000000000001062180	      0.00000000000000065540	    -43.37012053345419100000	     -1.76870170284791680000	     10.09660328563967200000	     -3.01986439837141240000	      2.51687028772864840000	     -0.00000000000006617289	      0.00000000000051642456	    -24.93975304743847900000	      0.68693981076785904000	    -12.06707444941068500000
      0.93400000000000005000	     -0.40537185820459143000	      0.82211325752327880000	     -0.28399653746773590000	     15.02474552248056000000	      4.90445630664652830000	     11.46702853075272600000	      8.48898686868554360000	     -7.56045546035696340000	     -0.51582891734550462000	      2.55689588974498650000	      0.86386723809211008000	     -0.00000000000001067715	      0.00000000000000068119	    -43.34370672274229000000	     -1.83641229501804660000	     10.03290661207430800000	     -3.25991539585071120000	      2.35491080418257900000	     -0.00000000000006663989	      0.00000000000051945724	    -24.90728155079712300000	      0.77474170446863944000	    -12.06223033220596900000
      0.93500000000000005000	     -0.40340534197047551000	      0.82192494212658618000	     -0.28405633071183989000	     15.03157881902174100000	      4.83569134238124130000	     11.48247636582851200000	      8.55838467667157590000	     -7.45829123439456860000	     -0.54236347588012601000	      2.28023738315799870000	      0.80955022581538949000	     -0.00000000000001073351	      0.00000000000000070213	    -43.31555670284684800000	     -1.90492385653101710000	      9.96761948027489630000	     -3.50361261714451720000	      2.18890341623943160000	     -0.00000000000006714138	      0.00000000000052258099	    -24.87501738865438800000	      0.86376473936005971000	    -12.05674651183527900000
      0.93600000000000005000	     -0.40143499838300151000	      0.82174108995727380000	     -0.28411472571399721000	     15.03902975594305900000	      4.76574130612923510000	     11.49748150339907600000	      8.62770692277936570000	     -7.35437807097729480000	     -0.56933163290562239000	      2.00092943218033700000	      0.75346736257734848000	     -0.00000000000001076982	      0.00000000000000072668	    -43.28564022471212500000	     -1.97422418195623610000	      9.90076059839450550000	     -3.75097992472781970000	      2.01885804219842500000	     -0.00000000000006765962	      0.00000000000052567084	    -24.84297030353198500000	      0.95398281466834600000	    -12.05062549439870700000
